<mxfile host="65bd71144e">
    <diagram id="b5amApiehvYBjquoh6d7" name="Page-1">
        <mxGraphModel dx="2569" dy="1177" grid="0" gridSize="10" guides="1" tooltips="1" connect="1" arrows="1" fold="1" page="1" pageScale="1" pageWidth="1169" pageHeight="827" background="#ffffff" math="0" shadow="0">
            <root>
                <mxCell id="0"/>
                <mxCell id="1" parent="0"/>
                <mxCell id="5y4DoQftpul-xa9_T40p-210" value="" style="rounded=1;whiteSpace=wrap;html=1;labelBackgroundColor=none;fillColor=#f9f7ed;strokeColor=#36393d;" parent="1" vertex="1">
                    <mxGeometry x="381" y="159" width="120" height="20" as="geometry"/>
                </mxCell>
                <mxCell id="5y4DoQftpul-xa9_T40p-211" value="" style="endArrow=none;dashed=1;html=1;dashPattern=1 3;strokeWidth=2;rounded=0;entryX=1;entryY=1;entryDx=0;entryDy=0;" parent="1" target="5y4DoQftpul-xa9_T40p-210" edge="1">
                    <mxGeometry width="50" height="50" relative="1" as="geometry">
                        <mxPoint x="501" y="709" as="sourcePoint"/>
                        <mxPoint x="576" y="269" as="targetPoint"/>
                    </mxGeometry>
                </mxCell>
                <mxCell id="5y4DoQftpul-xa9_T40p-212" value="" style="endArrow=none;dashed=1;html=1;dashPattern=1 3;strokeWidth=2;rounded=0;" parent="1" edge="1">
                    <mxGeometry width="50" height="50" relative="1" as="geometry">
                        <mxPoint x="381" y="709" as="sourcePoint"/>
                        <mxPoint x="381" y="179" as="targetPoint"/>
                    </mxGeometry>
                </mxCell>
                <mxCell id="5y4DoQftpul-xa9_T40p-214" value="" style="rounded=1;whiteSpace=wrap;html=1;labelBackgroundColor=none;fillColor=#bac8d3;strokeColor=#23445d;" parent="1" vertex="1">
                    <mxGeometry x="301" y="199" width="70" height="20" as="geometry"/>
                </mxCell>
                <mxCell id="5y4DoQftpul-xa9_T40p-215" value="" style="rounded=1;whiteSpace=wrap;html=1;labelBackgroundColor=none;fillColor=#bac8d3;strokeColor=#23445d;" parent="1" vertex="1">
                    <mxGeometry x="301" y="239" width="80" height="20" as="geometry"/>
                </mxCell>
                <mxCell id="5y4DoQftpul-xa9_T40p-216" value="" style="rounded=1;whiteSpace=wrap;html=1;labelBackgroundColor=none;fillColor=#bac8d3;strokeColor=#23445d;" parent="1" vertex="1">
                    <mxGeometry x="301" y="279" width="100" height="20" as="geometry"/>
                </mxCell>
                <mxCell id="5y4DoQftpul-xa9_T40p-217" value="" style="rounded=1;whiteSpace=wrap;html=1;labelBackgroundColor=none;fillColor=#bac8d3;strokeColor=#23445d;" parent="1" vertex="1">
                    <mxGeometry x="381" y="319" width="190" height="20" as="geometry"/>
                </mxCell>
                <mxCell id="5y4DoQftpul-xa9_T40p-218" value="" style="rounded=1;whiteSpace=wrap;html=1;labelBackgroundColor=none;fillColor=#bac8d3;strokeColor=#23445d;" parent="1" vertex="1">
                    <mxGeometry x="381" y="359" width="100" height="20" as="geometry"/>
                </mxCell>
                <mxCell id="5y4DoQftpul-xa9_T40p-219" value="" style="rounded=1;whiteSpace=wrap;html=1;labelBackgroundColor=none;fillColor=#bac8d3;strokeColor=#23445d;" parent="1" vertex="1">
                    <mxGeometry x="406" y="399" width="70" height="20" as="geometry"/>
                </mxCell>
                <mxCell id="5y4DoQftpul-xa9_T40p-220" value="" style="rounded=1;whiteSpace=wrap;html=1;labelBackgroundColor=none;fillColor=#bac8d3;strokeColor=#23445d;" parent="1" vertex="1">
                    <mxGeometry x="411" y="439" width="90" height="20" as="geometry"/>
                </mxCell>
                <mxCell id="5y4DoQftpul-xa9_T40p-221" value="" style="rounded=1;whiteSpace=wrap;html=1;labelBackgroundColor=none;fillColor=#bac8d3;strokeColor=#23445d;" parent="1" vertex="1">
                    <mxGeometry x="381" y="478" width="120" height="20" as="geometry"/>
                </mxCell>
                <mxCell id="5y4DoQftpul-xa9_T40p-222" value="" style="rounded=1;whiteSpace=wrap;html=1;labelBackgroundColor=none;fillColor=#bac8d3;strokeColor=#23445d;" parent="1" vertex="1">
                    <mxGeometry x="301" y="520" width="270" height="20" as="geometry"/>
                </mxCell>
                <mxCell id="5y4DoQftpul-xa9_T40p-223" value="" style="rounded=1;whiteSpace=wrap;html=1;labelBackgroundColor=none;fillColor=#bac8d3;strokeColor=#23445d;" parent="1" vertex="1">
                    <mxGeometry x="301" y="559" width="200" height="20" as="geometry"/>
                </mxCell>
                <mxCell id="5y4DoQftpul-xa9_T40p-224" value="" style="rounded=1;whiteSpace=wrap;html=1;labelBackgroundColor=none;fillColor=#bac8d3;strokeColor=#23445d;" parent="1" vertex="1">
                    <mxGeometry x="470" y="600" width="100" height="20" as="geometry"/>
                </mxCell>
                <mxCell id="5y4DoQftpul-xa9_T40p-225" value="" style="rounded=1;whiteSpace=wrap;html=1;labelBackgroundColor=none;fillColor=#bac8d3;strokeColor=#23445d;" parent="1" vertex="1">
                    <mxGeometry x="501" y="639" width="70" height="20" as="geometry"/>
                </mxCell>
                <mxCell id="5y4DoQftpul-xa9_T40p-226" value="" style="rounded=1;whiteSpace=wrap;html=1;labelBackgroundColor=none;fillColor=#bac8d3;strokeColor=#23445d;" parent="1" vertex="1">
                    <mxGeometry x="511" y="680" width="60" height="20" as="geometry"/>
                </mxCell>
                <mxCell id="107" value="checks" parent="0"/>
                <mxCell id="5y4DoQftpul-xa9_T40p-209" value="" style="sketch=0;html=1;aspect=fixed;strokeColor=none;shadow=0;align=center;verticalAlign=top;fillColor=#2D9C5E;shape=mxgraph.gcp2.check;labelBackgroundColor=none;" parent="107" vertex="1">
                    <mxGeometry x="622" y="477" width="25" height="20" as="geometry"/>
                </mxCell>
                <mxCell id="5y4DoQftpul-xa9_T40p-208" value="" style="sketch=0;html=1;aspect=fixed;strokeColor=none;shadow=0;align=center;verticalAlign=top;fillColor=#2D9C5E;shape=mxgraph.gcp2.check;labelBackgroundColor=none;" parent="107" vertex="1">
                    <mxGeometry x="732" y="476" width="25" height="20" as="geometry"/>
                </mxCell>
                <mxCell id="5y4DoQftpul-xa9_T40p-207" value="" style="sketch=0;html=1;aspect=fixed;strokeColor=none;shadow=0;align=center;verticalAlign=top;fillColor=#2D9C5E;shape=mxgraph.gcp2.check;labelBackgroundColor=none;" parent="107" vertex="1">
                    <mxGeometry x="732" y="435" width="25" height="20" as="geometry"/>
                </mxCell>
                <mxCell id="5y4DoQftpul-xa9_T40p-206" value="" style="sketch=0;html=1;aspect=fixed;strokeColor=none;shadow=0;align=center;verticalAlign=top;fillColor=#2D9C5E;shape=mxgraph.gcp2.check;labelBackgroundColor=none;" parent="107" vertex="1">
                    <mxGeometry x="732" y="397" width="25" height="20" as="geometry"/>
                </mxCell>
                <mxCell id="5y4DoQftpul-xa9_T40p-205" value="" style="sketch=0;html=1;aspect=fixed;strokeColor=none;shadow=0;align=center;verticalAlign=top;fillColor=#2D9C5E;shape=mxgraph.gcp2.check;labelBackgroundColor=none;" parent="107" vertex="1">
                    <mxGeometry x="732" y="361" width="25" height="20" as="geometry"/>
                </mxCell>
                <mxCell id="5y4DoQftpul-xa9_T40p-196" value="" style="sketch=0;html=1;aspect=fixed;strokeColor=none;shadow=0;align=center;verticalAlign=top;fillColor=#2D9C5E;shape=mxgraph.gcp2.check;labelBackgroundColor=none;" parent="107" vertex="1">
                    <mxGeometry x="846" y="279" width="25" height="20" as="geometry"/>
                </mxCell>
                <mxCell id="5y4DoQftpul-xa9_T40p-197" value="" style="sketch=0;html=1;aspect=fixed;strokeColor=none;shadow=0;align=center;verticalAlign=top;fillColor=#2D9C5E;shape=mxgraph.gcp2.check;labelBackgroundColor=none;" parent="107" vertex="1">
                    <mxGeometry x="846" y="319" width="25" height="20" as="geometry"/>
                </mxCell>
                <mxCell id="5y4DoQftpul-xa9_T40p-198" value="" style="sketch=0;html=1;aspect=fixed;strokeColor=none;shadow=0;align=center;verticalAlign=top;fillColor=#2D9C5E;shape=mxgraph.gcp2.check;labelBackgroundColor=none;" parent="107" vertex="1">
                    <mxGeometry x="846" y="359" width="25" height="20" as="geometry"/>
                </mxCell>
                <mxCell id="5y4DoQftpul-xa9_T40p-199" value="" style="sketch=0;html=1;aspect=fixed;strokeColor=none;shadow=0;align=center;verticalAlign=top;fillColor=#2D9C5E;shape=mxgraph.gcp2.check;labelBackgroundColor=none;" parent="107" vertex="1">
                    <mxGeometry x="846" y="399" width="25" height="20" as="geometry"/>
                </mxCell>
                <mxCell id="5y4DoQftpul-xa9_T40p-66" value="    Relacje między dwoma przedziałami czasowymi" style="shape=table;startSize=30;container=1;collapsible=0;childLayout=tableLayout;fontStyle=1;align=center;verticalAlign=middle;fillColor=#bac8d3;strokeColor=#23445d;fontSize=14;strokeWidth=1;gradientColor=none;swimlaneFillColor=none;" parent="107" vertex="1">
                    <mxGeometry x="126" y="119" width="896" height="590" as="geometry"/>
                </mxCell>
                <mxCell id="5y4DoQftpul-xa9_T40p-67" value="" style="shape=tableRow;horizontal=0;startSize=0;swimlaneHead=0;swimlaneBody=0;top=0;left=0;bottom=0;right=0;collapsible=0;dropTarget=0;fillColor=none;points=[[0,0.5],[1,0.5]];portConstraint=eastwest;" parent="5y4DoQftpul-xa9_T40p-66" vertex="1">
                    <mxGeometry y="30" width="896" height="40" as="geometry"/>
                </mxCell>
                <mxCell id="5y4DoQftpul-xa9_T40p-99" style="shape=partialRectangle;html=1;whiteSpace=wrap;connectable=0;fillColor=none;top=0;left=0;bottom=0;right=0;overflow=hidden;spacingLeft=8;" parent="5y4DoQftpul-xa9_T40p-67" vertex="1">
                    <mxGeometry width="162" height="40" as="geometry">
                        <mxRectangle width="162" height="40" as="alternateBounds"/>
                    </mxGeometry>
                </mxCell>
                <mxCell id="5y4DoQftpul-xa9_T40p-96" style="shape=partialRectangle;html=1;whiteSpace=wrap;connectable=0;fillColor=none;top=0;left=0;bottom=0;right=0;overflow=hidden;labelBackgroundColor=none;" parent="5y4DoQftpul-xa9_T40p-67" vertex="1">
                    <mxGeometry x="162" width="294" height="40" as="geometry">
                        <mxRectangle width="294" height="40" as="alternateBounds"/>
                    </mxGeometry>
                </mxCell>
                <mxCell id="5y4DoQftpul-xa9_T40p-93" value="Pokrywa się&lt;br&gt;&lt;i style=&quot;font-weight: normal&quot;&gt;IsSamePeriod()&lt;/i&gt;" style="shape=partialRectangle;html=1;whiteSpace=wrap;connectable=0;fillColor=none;top=0;left=0;bottom=0;right=0;overflow=hidden;fontStyle=1" parent="5y4DoQftpul-xa9_T40p-67" vertex="1">
                    <mxGeometry x="456" width="110" height="40" as="geometry">
                        <mxRectangle width="110" height="40" as="alternateBounds"/>
                    </mxGeometry>
                </mxCell>
                <mxCell id="5y4DoQftpul-xa9_T40p-68" value="Zawiera&lt;br&gt;&lt;i style=&quot;font-weight: normal&quot;&gt;HasInside()&lt;/i&gt;" style="shape=partialRectangle;html=1;whiteSpace=wrap;connectable=0;fillColor=none;top=0;left=0;bottom=0;right=0;overflow=hidden;fontStyle=1" parent="5y4DoQftpul-xa9_T40p-67" vertex="1">
                    <mxGeometry x="566" width="110" height="40" as="geometry">
                        <mxRectangle width="110" height="40" as="alternateBounds"/>
                    </mxGeometry>
                </mxCell>
                <mxCell id="5y4DoQftpul-xa9_T40p-69" value="Nakłada się z&lt;br&gt;&lt;span style=&quot;font-weight: normal&quot;&gt;&lt;i&gt;OverlapsWith()&lt;/i&gt;&lt;/span&gt;" style="shape=partialRectangle;html=1;whiteSpace=wrap;connectable=0;fillColor=none;top=0;left=0;bottom=0;right=0;overflow=hidden;fontStyle=1" parent="5y4DoQftpul-xa9_T40p-67" vertex="1">
                    <mxGeometry x="676" width="110" height="40" as="geometry">
                        <mxRectangle width="110" height="40" as="alternateBounds"/>
                    </mxGeometry>
                </mxCell>
                <mxCell id="5y4DoQftpul-xa9_T40p-70" value="Punkt wspólny z&lt;br&gt;&lt;i style=&quot;font-weight: normal&quot;&gt;IntersectsWith()&lt;/i&gt;" style="shape=partialRectangle;html=1;whiteSpace=wrap;connectable=0;fillColor=none;top=0;left=0;bottom=0;right=0;overflow=hidden;fontStyle=1" parent="5y4DoQftpul-xa9_T40p-67" vertex="1">
                    <mxGeometry x="786" width="110" height="40" as="geometry">
                        <mxRectangle width="110" height="40" as="alternateBounds"/>
                    </mxGeometry>
                </mxCell>
                <mxCell id="5y4DoQftpul-xa9_T40p-71" value="" style="shape=tableRow;horizontal=0;startSize=0;swimlaneHead=0;swimlaneBody=0;top=0;left=0;bottom=0;right=0;collapsible=0;dropTarget=0;fillColor=none;points=[[0,0.5],[1,0.5]];portConstraint=eastwest;" parent="5y4DoQftpul-xa9_T40p-66" vertex="1">
                    <mxGeometry y="70" width="896" height="40" as="geometry"/>
                </mxCell>
                <mxCell id="5y4DoQftpul-xa9_T40p-100" value="Po przerwie" style="shape=partialRectangle;html=1;whiteSpace=wrap;connectable=0;fillColor=none;top=0;left=0;bottom=0;right=0;overflow=hidden;fontStyle=0;align=left;spacingLeft=5;" parent="5y4DoQftpul-xa9_T40p-71" vertex="1">
                    <mxGeometry width="162" height="40" as="geometry">
                        <mxRectangle width="162" height="40" as="alternateBounds"/>
                    </mxGeometry>
                </mxCell>
                <mxCell id="5y4DoQftpul-xa9_T40p-97" style="shape=partialRectangle;html=1;whiteSpace=wrap;connectable=0;fillColor=none;top=0;left=0;bottom=0;right=0;overflow=hidden;align=left;" parent="5y4DoQftpul-xa9_T40p-71" vertex="1">
                    <mxGeometry x="162" width="294" height="40" as="geometry">
                        <mxRectangle width="294" height="40" as="alternateBounds"/>
                    </mxGeometry>
                </mxCell>
                <mxCell id="5y4DoQftpul-xa9_T40p-94" style="shape=partialRectangle;html=1;whiteSpace=wrap;connectable=0;fillColor=none;top=0;left=0;bottom=0;right=0;overflow=hidden;" parent="5y4DoQftpul-xa9_T40p-71" vertex="1">
                    <mxGeometry x="456" width="110" height="40" as="geometry">
                        <mxRectangle width="110" height="40" as="alternateBounds"/>
                    </mxGeometry>
                </mxCell>
                <mxCell id="5y4DoQftpul-xa9_T40p-72" value="" style="shape=partialRectangle;html=1;whiteSpace=wrap;connectable=0;fillColor=none;top=0;left=0;bottom=0;right=0;overflow=hidden;" parent="5y4DoQftpul-xa9_T40p-71" vertex="1">
                    <mxGeometry x="566" width="110" height="40" as="geometry">
                        <mxRectangle width="110" height="40" as="alternateBounds"/>
                    </mxGeometry>
                </mxCell>
                <mxCell id="5y4DoQftpul-xa9_T40p-73" value="" style="shape=partialRectangle;html=1;whiteSpace=wrap;connectable=0;fillColor=none;top=0;left=0;bottom=0;right=0;overflow=hidden;" parent="5y4DoQftpul-xa9_T40p-71" vertex="1">
                    <mxGeometry x="676" width="110" height="40" as="geometry">
                        <mxRectangle width="110" height="40" as="alternateBounds"/>
                    </mxGeometry>
                </mxCell>
                <mxCell id="5y4DoQftpul-xa9_T40p-74" value="" style="shape=partialRectangle;html=1;whiteSpace=wrap;connectable=0;fillColor=none;top=0;left=0;bottom=0;right=0;overflow=hidden;" parent="5y4DoQftpul-xa9_T40p-71" vertex="1">
                    <mxGeometry x="786" width="110" height="40" as="geometry">
                        <mxRectangle width="110" height="40" as="alternateBounds"/>
                    </mxGeometry>
                </mxCell>
                <mxCell id="5y4DoQftpul-xa9_T40p-75" value="" style="shape=tableRow;horizontal=0;startSize=0;swimlaneHead=0;swimlaneBody=0;top=0;left=0;bottom=0;right=0;collapsible=0;dropTarget=0;fillColor=none;points=[[0,0.5],[1,0.5]];portConstraint=eastwest;" parent="5y4DoQftpul-xa9_T40p-66" vertex="1">
                    <mxGeometry y="110" width="896" height="40" as="geometry"/>
                </mxCell>
                <mxCell id="5y4DoQftpul-xa9_T40p-101" value="Po zakończeniu poprzedniego" style="shape=partialRectangle;html=1;whiteSpace=wrap;connectable=0;fillColor=none;top=0;left=0;bottom=0;right=0;overflow=hidden;fontStyle=0;align=left;spacingLeft=5;" parent="5y4DoQftpul-xa9_T40p-75" vertex="1">
                    <mxGeometry width="162" height="40" as="geometry">
                        <mxRectangle width="162" height="40" as="alternateBounds"/>
                    </mxGeometry>
                </mxCell>
                <mxCell id="5y4DoQftpul-xa9_T40p-98" style="shape=partialRectangle;html=1;whiteSpace=wrap;connectable=0;fillColor=none;top=0;left=0;bottom=0;right=0;overflow=hidden;" parent="5y4DoQftpul-xa9_T40p-75" vertex="1">
                    <mxGeometry x="162" width="294" height="40" as="geometry">
                        <mxRectangle width="294" height="40" as="alternateBounds"/>
                    </mxGeometry>
                </mxCell>
                <mxCell id="5y4DoQftpul-xa9_T40p-95" style="shape=partialRectangle;html=1;whiteSpace=wrap;connectable=0;fillColor=none;top=0;left=0;bottom=0;right=0;overflow=hidden;" parent="5y4DoQftpul-xa9_T40p-75" vertex="1">
                    <mxGeometry x="456" width="110" height="40" as="geometry">
                        <mxRectangle width="110" height="40" as="alternateBounds"/>
                    </mxGeometry>
                </mxCell>
                <mxCell id="5y4DoQftpul-xa9_T40p-76" value="" style="shape=partialRectangle;html=1;whiteSpace=wrap;connectable=0;fillColor=none;top=0;left=0;bottom=0;right=0;overflow=hidden;" parent="5y4DoQftpul-xa9_T40p-75" vertex="1">
                    <mxGeometry x="566" width="110" height="40" as="geometry">
                        <mxRectangle width="110" height="40" as="alternateBounds"/>
                    </mxGeometry>
                </mxCell>
                <mxCell id="5y4DoQftpul-xa9_T40p-77" value="" style="shape=partialRectangle;html=1;whiteSpace=wrap;connectable=0;fillColor=none;top=0;left=0;bottom=0;right=0;overflow=hidden;" parent="5y4DoQftpul-xa9_T40p-75" vertex="1">
                    <mxGeometry x="676" width="110" height="40" as="geometry">
                        <mxRectangle width="110" height="40" as="alternateBounds"/>
                    </mxGeometry>
                </mxCell>
                <mxCell id="5y4DoQftpul-xa9_T40p-78" value="" style="shape=partialRectangle;html=1;whiteSpace=wrap;connectable=0;fillColor=none;top=0;left=0;bottom=0;right=0;overflow=hidden;" parent="5y4DoQftpul-xa9_T40p-75" vertex="1">
                    <mxGeometry x="786" width="110" height="40" as="geometry">
                        <mxRectangle width="110" height="40" as="alternateBounds"/>
                    </mxGeometry>
                </mxCell>
                <mxCell id="5y4DoQftpul-xa9_T40p-102" style="shape=tableRow;horizontal=0;startSize=0;swimlaneHead=0;swimlaneBody=0;top=0;left=0;bottom=0;right=0;collapsible=0;dropTarget=0;fillColor=none;points=[[0,0.5],[1,0.5]];portConstraint=eastwest;" parent="5y4DoQftpul-xa9_T40p-66" vertex="1">
                    <mxGeometry y="150" width="896" height="40" as="geometry"/>
                </mxCell>
                <mxCell id="5y4DoQftpul-xa9_T40p-103" value="Początek przed zakończeniem poprzedniego" style="shape=partialRectangle;html=1;whiteSpace=wrap;connectable=0;fillColor=none;top=0;left=0;bottom=0;right=0;overflow=hidden;fontStyle=0;align=left;spacingLeft=5;" parent="5y4DoQftpul-xa9_T40p-102" vertex="1">
                    <mxGeometry width="162" height="40" as="geometry">
                        <mxRectangle width="162" height="40" as="alternateBounds"/>
                    </mxGeometry>
                </mxCell>
                <mxCell id="5y4DoQftpul-xa9_T40p-104" style="shape=partialRectangle;html=1;whiteSpace=wrap;connectable=0;fillColor=none;top=0;left=0;bottom=0;right=0;overflow=hidden;" parent="5y4DoQftpul-xa9_T40p-102" vertex="1">
                    <mxGeometry x="162" width="294" height="40" as="geometry">
                        <mxRectangle width="294" height="40" as="alternateBounds"/>
                    </mxGeometry>
                </mxCell>
                <mxCell id="5y4DoQftpul-xa9_T40p-105" style="shape=partialRectangle;html=1;whiteSpace=wrap;connectable=0;fillColor=none;top=0;left=0;bottom=0;right=0;overflow=hidden;" parent="5y4DoQftpul-xa9_T40p-102" vertex="1">
                    <mxGeometry x="456" width="110" height="40" as="geometry">
                        <mxRectangle width="110" height="40" as="alternateBounds"/>
                    </mxGeometry>
                </mxCell>
                <mxCell id="5y4DoQftpul-xa9_T40p-106" style="shape=partialRectangle;html=1;whiteSpace=wrap;connectable=0;fillColor=none;top=0;left=0;bottom=0;right=0;overflow=hidden;" parent="5y4DoQftpul-xa9_T40p-102" vertex="1">
                    <mxGeometry x="566" width="110" height="40" as="geometry">
                        <mxRectangle width="110" height="40" as="alternateBounds"/>
                    </mxGeometry>
                </mxCell>
                <mxCell id="5y4DoQftpul-xa9_T40p-107" style="shape=partialRectangle;html=1;whiteSpace=wrap;connectable=0;fillColor=none;top=0;left=0;bottom=0;right=0;overflow=hidden;" parent="5y4DoQftpul-xa9_T40p-102" vertex="1">
                    <mxGeometry x="676" width="110" height="40" as="geometry">
                        <mxRectangle width="110" height="40" as="alternateBounds"/>
                    </mxGeometry>
                </mxCell>
                <mxCell id="5y4DoQftpul-xa9_T40p-108" style="shape=partialRectangle;html=1;whiteSpace=wrap;connectable=0;fillColor=none;top=0;left=0;bottom=0;right=0;overflow=hidden;" parent="5y4DoQftpul-xa9_T40p-102" vertex="1">
                    <mxGeometry x="786" width="110" height="40" as="geometry">
                        <mxRectangle width="110" height="40" as="alternateBounds"/>
                    </mxGeometry>
                </mxCell>
                <mxCell id="5y4DoQftpul-xa9_T40p-109" style="shape=tableRow;horizontal=0;startSize=0;swimlaneHead=0;swimlaneBody=0;top=0;left=0;bottom=0;right=0;collapsible=0;dropTarget=0;fillColor=none;points=[[0,0.5],[1,0.5]];portConstraint=eastwest;" parent="5y4DoQftpul-xa9_T40p-66" vertex="1">
                    <mxGeometry y="190" width="896" height="40" as="geometry"/>
                </mxCell>
                <mxCell id="5y4DoQftpul-xa9_T40p-110" value="Ten sam początek, wcześniejszy koniec" style="shape=partialRectangle;html=1;whiteSpace=wrap;connectable=0;fillColor=none;top=0;left=0;bottom=0;right=0;overflow=hidden;fontStyle=0;align=left;spacingLeft=5;" parent="5y4DoQftpul-xa9_T40p-109" vertex="1">
                    <mxGeometry width="162" height="40" as="geometry">
                        <mxRectangle width="162" height="40" as="alternateBounds"/>
                    </mxGeometry>
                </mxCell>
                <mxCell id="5y4DoQftpul-xa9_T40p-111" style="shape=partialRectangle;html=1;whiteSpace=wrap;connectable=0;fillColor=none;top=0;left=0;bottom=0;right=0;overflow=hidden;" parent="5y4DoQftpul-xa9_T40p-109" vertex="1">
                    <mxGeometry x="162" width="294" height="40" as="geometry">
                        <mxRectangle width="294" height="40" as="alternateBounds"/>
                    </mxGeometry>
                </mxCell>
                <mxCell id="5y4DoQftpul-xa9_T40p-112" style="shape=partialRectangle;html=1;whiteSpace=wrap;connectable=0;fillColor=none;top=0;left=0;bottom=0;right=0;overflow=hidden;" parent="5y4DoQftpul-xa9_T40p-109" vertex="1">
                    <mxGeometry x="456" width="110" height="40" as="geometry">
                        <mxRectangle width="110" height="40" as="alternateBounds"/>
                    </mxGeometry>
                </mxCell>
                <mxCell id="5y4DoQftpul-xa9_T40p-113" style="shape=partialRectangle;html=1;whiteSpace=wrap;connectable=0;fillColor=none;top=0;left=0;bottom=0;right=0;overflow=hidden;" parent="5y4DoQftpul-xa9_T40p-109" vertex="1">
                    <mxGeometry x="566" width="110" height="40" as="geometry">
                        <mxRectangle width="110" height="40" as="alternateBounds"/>
                    </mxGeometry>
                </mxCell>
                <mxCell id="5y4DoQftpul-xa9_T40p-114" style="shape=partialRectangle;html=1;whiteSpace=wrap;connectable=0;fillColor=none;top=0;left=0;bottom=0;right=0;overflow=hidden;" parent="5y4DoQftpul-xa9_T40p-109" vertex="1">
                    <mxGeometry x="676" width="110" height="40" as="geometry">
                        <mxRectangle width="110" height="40" as="alternateBounds"/>
                    </mxGeometry>
                </mxCell>
                <mxCell id="5y4DoQftpul-xa9_T40p-115" style="shape=partialRectangle;html=1;whiteSpace=wrap;connectable=0;fillColor=none;top=0;left=0;bottom=0;right=0;overflow=hidden;" parent="5y4DoQftpul-xa9_T40p-109" vertex="1">
                    <mxGeometry x="786" width="110" height="40" as="geometry">
                        <mxRectangle width="110" height="40" as="alternateBounds"/>
                    </mxGeometry>
                </mxCell>
                <mxCell id="5y4DoQftpul-xa9_T40p-116" style="shape=tableRow;horizontal=0;startSize=0;swimlaneHead=0;swimlaneBody=0;top=0;left=0;bottom=0;right=0;collapsible=0;dropTarget=0;fillColor=none;points=[[0,0.5],[1,0.5]];portConstraint=eastwest;" parent="5y4DoQftpul-xa9_T40p-66" vertex="1">
                    <mxGeometry y="230" width="896" height="40" as="geometry"/>
                </mxCell>
                <mxCell id="5y4DoQftpul-xa9_T40p-117" value="Ten sam początek, późniejszy koniec" style="shape=partialRectangle;html=1;whiteSpace=wrap;connectable=0;fillColor=none;top=0;left=0;bottom=0;right=0;overflow=hidden;fontStyle=0;align=left;spacingLeft=5;" parent="5y4DoQftpul-xa9_T40p-116" vertex="1">
                    <mxGeometry width="162" height="40" as="geometry">
                        <mxRectangle width="162" height="40" as="alternateBounds"/>
                    </mxGeometry>
                </mxCell>
                <mxCell id="5y4DoQftpul-xa9_T40p-118" style="shape=partialRectangle;html=1;whiteSpace=wrap;connectable=0;fillColor=none;top=0;left=0;bottom=0;right=0;overflow=hidden;" parent="5y4DoQftpul-xa9_T40p-116" vertex="1">
                    <mxGeometry x="162" width="294" height="40" as="geometry">
                        <mxRectangle width="294" height="40" as="alternateBounds"/>
                    </mxGeometry>
                </mxCell>
                <mxCell id="5y4DoQftpul-xa9_T40p-119" style="shape=partialRectangle;html=1;whiteSpace=wrap;connectable=0;fillColor=none;top=0;left=0;bottom=0;right=0;overflow=hidden;" parent="5y4DoQftpul-xa9_T40p-116" vertex="1">
                    <mxGeometry x="456" width="110" height="40" as="geometry">
                        <mxRectangle width="110" height="40" as="alternateBounds"/>
                    </mxGeometry>
                </mxCell>
                <mxCell id="5y4DoQftpul-xa9_T40p-120" style="shape=partialRectangle;html=1;whiteSpace=wrap;connectable=0;fillColor=none;top=0;left=0;bottom=0;right=0;overflow=hidden;" parent="5y4DoQftpul-xa9_T40p-116" vertex="1">
                    <mxGeometry x="566" width="110" height="40" as="geometry">
                        <mxRectangle width="110" height="40" as="alternateBounds"/>
                    </mxGeometry>
                </mxCell>
                <mxCell id="5y4DoQftpul-xa9_T40p-121" style="shape=partialRectangle;html=1;whiteSpace=wrap;connectable=0;fillColor=none;top=0;left=0;bottom=0;right=0;overflow=hidden;" parent="5y4DoQftpul-xa9_T40p-116" vertex="1">
                    <mxGeometry x="676" width="110" height="40" as="geometry">
                        <mxRectangle width="110" height="40" as="alternateBounds"/>
                    </mxGeometry>
                </mxCell>
                <mxCell id="5y4DoQftpul-xa9_T40p-122" style="shape=partialRectangle;html=1;whiteSpace=wrap;connectable=0;fillColor=none;top=0;left=0;bottom=0;right=0;overflow=hidden;" parent="5y4DoQftpul-xa9_T40p-116" vertex="1">
                    <mxGeometry x="786" width="110" height="40" as="geometry">
                        <mxRectangle width="110" height="40" as="alternateBounds"/>
                    </mxGeometry>
                </mxCell>
                <mxCell id="5y4DoQftpul-xa9_T40p-123" style="shape=tableRow;horizontal=0;startSize=0;swimlaneHead=0;swimlaneBody=0;top=0;left=0;bottom=0;right=0;collapsible=0;dropTarget=0;fillColor=none;points=[[0,0.5],[1,0.5]];portConstraint=eastwest;" parent="5y4DoQftpul-xa9_T40p-66" vertex="1">
                    <mxGeometry y="270" width="896" height="40" as="geometry"/>
                </mxCell>
                <mxCell id="5y4DoQftpul-xa9_T40p-124" value="W trakcie trwania" style="shape=partialRectangle;html=1;whiteSpace=wrap;connectable=0;fillColor=none;top=0;left=0;bottom=0;right=0;overflow=hidden;fontStyle=0;align=left;spacingLeft=5;" parent="5y4DoQftpul-xa9_T40p-123" vertex="1">
                    <mxGeometry width="162" height="40" as="geometry">
                        <mxRectangle width="162" height="40" as="alternateBounds"/>
                    </mxGeometry>
                </mxCell>
                <mxCell id="5y4DoQftpul-xa9_T40p-125" style="shape=partialRectangle;html=1;whiteSpace=wrap;connectable=0;fillColor=none;top=0;left=0;bottom=0;right=0;overflow=hidden;" parent="5y4DoQftpul-xa9_T40p-123" vertex="1">
                    <mxGeometry x="162" width="294" height="40" as="geometry">
                        <mxRectangle width="294" height="40" as="alternateBounds"/>
                    </mxGeometry>
                </mxCell>
                <mxCell id="5y4DoQftpul-xa9_T40p-126" style="shape=partialRectangle;html=1;whiteSpace=wrap;connectable=0;fillColor=none;top=0;left=0;bottom=0;right=0;overflow=hidden;" parent="5y4DoQftpul-xa9_T40p-123" vertex="1">
                    <mxGeometry x="456" width="110" height="40" as="geometry">
                        <mxRectangle width="110" height="40" as="alternateBounds"/>
                    </mxGeometry>
                </mxCell>
                <mxCell id="5y4DoQftpul-xa9_T40p-127" style="shape=partialRectangle;html=1;whiteSpace=wrap;connectable=0;fillColor=none;top=0;left=0;bottom=0;right=0;overflow=hidden;" parent="5y4DoQftpul-xa9_T40p-123" vertex="1">
                    <mxGeometry x="566" width="110" height="40" as="geometry">
                        <mxRectangle width="110" height="40" as="alternateBounds"/>
                    </mxGeometry>
                </mxCell>
                <mxCell id="5y4DoQftpul-xa9_T40p-128" style="shape=partialRectangle;html=1;whiteSpace=wrap;connectable=0;fillColor=none;top=0;left=0;bottom=0;right=0;overflow=hidden;" parent="5y4DoQftpul-xa9_T40p-123" vertex="1">
                    <mxGeometry x="676" width="110" height="40" as="geometry">
                        <mxRectangle width="110" height="40" as="alternateBounds"/>
                    </mxGeometry>
                </mxCell>
                <mxCell id="5y4DoQftpul-xa9_T40p-129" style="shape=partialRectangle;html=1;whiteSpace=wrap;connectable=0;fillColor=none;top=0;left=0;bottom=0;right=0;overflow=hidden;" parent="5y4DoQftpul-xa9_T40p-123" vertex="1">
                    <mxGeometry x="786" width="110" height="40" as="geometry">
                        <mxRectangle width="110" height="40" as="alternateBounds"/>
                    </mxGeometry>
                </mxCell>
                <mxCell id="5y4DoQftpul-xa9_T40p-130" style="shape=tableRow;horizontal=0;startSize=0;swimlaneHead=0;swimlaneBody=0;top=0;left=0;bottom=0;right=0;collapsible=0;dropTarget=0;fillColor=none;points=[[0,0.5],[1,0.5]];portConstraint=eastwest;" parent="5y4DoQftpul-xa9_T40p-66" vertex="1">
                    <mxGeometry y="310" width="896" height="40" as="geometry"/>
                </mxCell>
                <mxCell id="5y4DoQftpul-xa9_T40p-131" value="Późniejszy początek, &lt;br&gt;ten sam koniec" style="shape=partialRectangle;html=1;whiteSpace=wrap;connectable=0;fillColor=none;top=0;left=0;bottom=0;right=0;overflow=hidden;fontStyle=0;align=left;spacingLeft=5;" parent="5y4DoQftpul-xa9_T40p-130" vertex="1">
                    <mxGeometry width="162" height="40" as="geometry">
                        <mxRectangle width="162" height="40" as="alternateBounds"/>
                    </mxGeometry>
                </mxCell>
                <mxCell id="5y4DoQftpul-xa9_T40p-132" style="shape=partialRectangle;html=1;whiteSpace=wrap;connectable=0;fillColor=none;top=0;left=0;bottom=0;right=0;overflow=hidden;" parent="5y4DoQftpul-xa9_T40p-130" vertex="1">
                    <mxGeometry x="162" width="294" height="40" as="geometry">
                        <mxRectangle width="294" height="40" as="alternateBounds"/>
                    </mxGeometry>
                </mxCell>
                <mxCell id="5y4DoQftpul-xa9_T40p-133" style="shape=partialRectangle;html=1;whiteSpace=wrap;connectable=0;fillColor=none;top=0;left=0;bottom=0;right=0;overflow=hidden;" parent="5y4DoQftpul-xa9_T40p-130" vertex="1">
                    <mxGeometry x="456" width="110" height="40" as="geometry">
                        <mxRectangle width="110" height="40" as="alternateBounds"/>
                    </mxGeometry>
                </mxCell>
                <mxCell id="5y4DoQftpul-xa9_T40p-134" style="shape=partialRectangle;html=1;whiteSpace=wrap;connectable=0;fillColor=none;top=0;left=0;bottom=0;right=0;overflow=hidden;" parent="5y4DoQftpul-xa9_T40p-130" vertex="1">
                    <mxGeometry x="566" width="110" height="40" as="geometry">
                        <mxRectangle width="110" height="40" as="alternateBounds"/>
                    </mxGeometry>
                </mxCell>
                <mxCell id="5y4DoQftpul-xa9_T40p-135" style="shape=partialRectangle;html=1;whiteSpace=wrap;connectable=0;fillColor=none;top=0;left=0;bottom=0;right=0;overflow=hidden;" parent="5y4DoQftpul-xa9_T40p-130" vertex="1">
                    <mxGeometry x="676" width="110" height="40" as="geometry">
                        <mxRectangle width="110" height="40" as="alternateBounds"/>
                    </mxGeometry>
                </mxCell>
                <mxCell id="5y4DoQftpul-xa9_T40p-136" style="shape=partialRectangle;html=1;whiteSpace=wrap;connectable=0;fillColor=none;top=0;left=0;bottom=0;right=0;overflow=hidden;" parent="5y4DoQftpul-xa9_T40p-130" vertex="1">
                    <mxGeometry x="786" width="110" height="40" as="geometry">
                        <mxRectangle width="110" height="40" as="alternateBounds"/>
                    </mxGeometry>
                </mxCell>
                <mxCell id="5y4DoQftpul-xa9_T40p-137" style="shape=tableRow;horizontal=0;startSize=0;swimlaneHead=0;swimlaneBody=0;top=0;left=0;bottom=0;right=0;collapsible=0;dropTarget=0;fillColor=none;points=[[0,0.5],[1,0.5]];portConstraint=eastwest;" parent="5y4DoQftpul-xa9_T40p-66" vertex="1">
                    <mxGeometry y="350" width="896" height="40" as="geometry"/>
                </mxCell>
                <mxCell id="5y4DoQftpul-xa9_T40p-138" value="Dokładne nałożenie" style="shape=partialRectangle;html=1;whiteSpace=wrap;connectable=0;fillColor=none;top=0;left=0;bottom=0;right=0;overflow=hidden;fontStyle=0;align=left;spacingLeft=5;" parent="5y4DoQftpul-xa9_T40p-137" vertex="1">
                    <mxGeometry width="162" height="40" as="geometry">
                        <mxRectangle width="162" height="40" as="alternateBounds"/>
                    </mxGeometry>
                </mxCell>
                <mxCell id="5y4DoQftpul-xa9_T40p-139" style="shape=partialRectangle;html=1;whiteSpace=wrap;connectable=0;fillColor=none;top=0;left=0;bottom=0;right=0;overflow=hidden;" parent="5y4DoQftpul-xa9_T40p-137" vertex="1">
                    <mxGeometry x="162" width="294" height="40" as="geometry">
                        <mxRectangle width="294" height="40" as="alternateBounds"/>
                    </mxGeometry>
                </mxCell>
                <mxCell id="5y4DoQftpul-xa9_T40p-140" style="shape=partialRectangle;html=1;whiteSpace=wrap;connectable=0;fillColor=none;top=0;left=0;bottom=0;right=0;overflow=hidden;" parent="5y4DoQftpul-xa9_T40p-137" vertex="1">
                    <mxGeometry x="456" width="110" height="40" as="geometry">
                        <mxRectangle width="110" height="40" as="alternateBounds"/>
                    </mxGeometry>
                </mxCell>
                <mxCell id="5y4DoQftpul-xa9_T40p-141" style="shape=partialRectangle;html=1;whiteSpace=wrap;connectable=0;fillColor=none;top=0;left=0;bottom=0;right=0;overflow=hidden;" parent="5y4DoQftpul-xa9_T40p-137" vertex="1">
                    <mxGeometry x="566" width="110" height="40" as="geometry">
                        <mxRectangle width="110" height="40" as="alternateBounds"/>
                    </mxGeometry>
                </mxCell>
                <mxCell id="5y4DoQftpul-xa9_T40p-142" style="shape=partialRectangle;html=1;whiteSpace=wrap;connectable=0;fillColor=none;top=0;left=0;bottom=0;right=0;overflow=hidden;" parent="5y4DoQftpul-xa9_T40p-137" vertex="1">
                    <mxGeometry x="676" width="110" height="40" as="geometry">
                        <mxRectangle width="110" height="40" as="alternateBounds"/>
                    </mxGeometry>
                </mxCell>
                <mxCell id="5y4DoQftpul-xa9_T40p-143" style="shape=partialRectangle;html=1;whiteSpace=wrap;connectable=0;fillColor=none;top=0;left=0;bottom=0;right=0;overflow=hidden;" parent="5y4DoQftpul-xa9_T40p-137" vertex="1">
                    <mxGeometry x="786" width="110" height="40" as="geometry">
                        <mxRectangle width="110" height="40" as="alternateBounds"/>
                    </mxGeometry>
                </mxCell>
                <mxCell id="5y4DoQftpul-xa9_T40p-144" style="shape=tableRow;horizontal=0;startSize=0;swimlaneHead=0;swimlaneBody=0;top=0;left=0;bottom=0;right=0;collapsible=0;dropTarget=0;fillColor=none;points=[[0,0.5],[1,0.5]];portConstraint=eastwest;" parent="5y4DoQftpul-xa9_T40p-66" vertex="1">
                    <mxGeometry y="390" width="896" height="40" as="geometry"/>
                </mxCell>
                <mxCell id="5y4DoQftpul-xa9_T40p-145" value="Wcześniejszy początek, późniejszy koniec" style="shape=partialRectangle;html=1;whiteSpace=wrap;connectable=0;fillColor=none;top=0;left=0;bottom=0;right=0;overflow=hidden;fontStyle=0;align=left;spacingLeft=5;" parent="5y4DoQftpul-xa9_T40p-144" vertex="1">
                    <mxGeometry width="162" height="40" as="geometry">
                        <mxRectangle width="162" height="40" as="alternateBounds"/>
                    </mxGeometry>
                </mxCell>
                <mxCell id="5y4DoQftpul-xa9_T40p-146" style="shape=partialRectangle;html=1;whiteSpace=wrap;connectable=0;fillColor=none;top=0;left=0;bottom=0;right=0;overflow=hidden;" parent="5y4DoQftpul-xa9_T40p-144" vertex="1">
                    <mxGeometry x="162" width="294" height="40" as="geometry">
                        <mxRectangle width="294" height="40" as="alternateBounds"/>
                    </mxGeometry>
                </mxCell>
                <mxCell id="5y4DoQftpul-xa9_T40p-147" style="shape=partialRectangle;html=1;whiteSpace=wrap;connectable=0;fillColor=none;top=0;left=0;bottom=0;right=0;overflow=hidden;" parent="5y4DoQftpul-xa9_T40p-144" vertex="1">
                    <mxGeometry x="456" width="110" height="40" as="geometry">
                        <mxRectangle width="110" height="40" as="alternateBounds"/>
                    </mxGeometry>
                </mxCell>
                <mxCell id="5y4DoQftpul-xa9_T40p-148" style="shape=partialRectangle;html=1;whiteSpace=wrap;connectable=0;fillColor=none;top=0;left=0;bottom=0;right=0;overflow=hidden;" parent="5y4DoQftpul-xa9_T40p-144" vertex="1">
                    <mxGeometry x="566" width="110" height="40" as="geometry">
                        <mxRectangle width="110" height="40" as="alternateBounds"/>
                    </mxGeometry>
                </mxCell>
                <mxCell id="5y4DoQftpul-xa9_T40p-149" style="shape=partialRectangle;html=1;whiteSpace=wrap;connectable=0;fillColor=none;top=0;left=0;bottom=0;right=0;overflow=hidden;" parent="5y4DoQftpul-xa9_T40p-144" vertex="1">
                    <mxGeometry x="676" width="110" height="40" as="geometry">
                        <mxRectangle width="110" height="40" as="alternateBounds"/>
                    </mxGeometry>
                </mxCell>
                <mxCell id="5y4DoQftpul-xa9_T40p-150" style="shape=partialRectangle;html=1;whiteSpace=wrap;connectable=0;fillColor=none;top=0;left=0;bottom=0;right=0;overflow=hidden;" parent="5y4DoQftpul-xa9_T40p-144" vertex="1">
                    <mxGeometry x="786" width="110" height="40" as="geometry">
                        <mxRectangle width="110" height="40" as="alternateBounds"/>
                    </mxGeometry>
                </mxCell>
                <mxCell id="5y4DoQftpul-xa9_T40p-151" style="shape=tableRow;horizontal=0;startSize=0;swimlaneHead=0;swimlaneBody=0;top=0;left=0;bottom=0;right=0;collapsible=0;dropTarget=0;fillColor=none;points=[[0,0.5],[1,0.5]];portConstraint=eastwest;" parent="5y4DoQftpul-xa9_T40p-66" vertex="1">
                    <mxGeometry y="430" width="896" height="40" as="geometry"/>
                </mxCell>
                <mxCell id="5y4DoQftpul-xa9_T40p-152" value="Wcześniejszy początek, &lt;br&gt;ten sam koniec" style="shape=partialRectangle;html=1;whiteSpace=wrap;connectable=0;fillColor=none;top=0;left=0;bottom=0;right=0;overflow=hidden;fontStyle=0;align=left;spacingLeft=5;" parent="5y4DoQftpul-xa9_T40p-151" vertex="1">
                    <mxGeometry width="162" height="40" as="geometry">
                        <mxRectangle width="162" height="40" as="alternateBounds"/>
                    </mxGeometry>
                </mxCell>
                <mxCell id="5y4DoQftpul-xa9_T40p-153" style="shape=partialRectangle;html=1;whiteSpace=wrap;connectable=0;fillColor=none;top=0;left=0;bottom=0;right=0;overflow=hidden;" parent="5y4DoQftpul-xa9_T40p-151" vertex="1">
                    <mxGeometry x="162" width="294" height="40" as="geometry">
                        <mxRectangle width="294" height="40" as="alternateBounds"/>
                    </mxGeometry>
                </mxCell>
                <mxCell id="5y4DoQftpul-xa9_T40p-154" style="shape=partialRectangle;html=1;whiteSpace=wrap;connectable=0;fillColor=none;top=0;left=0;bottom=0;right=0;overflow=hidden;" parent="5y4DoQftpul-xa9_T40p-151" vertex="1">
                    <mxGeometry x="456" width="110" height="40" as="geometry">
                        <mxRectangle width="110" height="40" as="alternateBounds"/>
                    </mxGeometry>
                </mxCell>
                <mxCell id="5y4DoQftpul-xa9_T40p-155" style="shape=partialRectangle;html=1;whiteSpace=wrap;connectable=0;fillColor=none;top=0;left=0;bottom=0;right=0;overflow=hidden;" parent="5y4DoQftpul-xa9_T40p-151" vertex="1">
                    <mxGeometry x="566" width="110" height="40" as="geometry">
                        <mxRectangle width="110" height="40" as="alternateBounds"/>
                    </mxGeometry>
                </mxCell>
                <mxCell id="5y4DoQftpul-xa9_T40p-156" style="shape=partialRectangle;html=1;whiteSpace=wrap;connectable=0;fillColor=none;top=0;left=0;bottom=0;right=0;overflow=hidden;" parent="5y4DoQftpul-xa9_T40p-151" vertex="1">
                    <mxGeometry x="676" width="110" height="40" as="geometry">
                        <mxRectangle width="110" height="40" as="alternateBounds"/>
                    </mxGeometry>
                </mxCell>
                <mxCell id="5y4DoQftpul-xa9_T40p-157" style="shape=partialRectangle;html=1;whiteSpace=wrap;connectable=0;fillColor=none;top=0;left=0;bottom=0;right=0;overflow=hidden;" parent="5y4DoQftpul-xa9_T40p-151" vertex="1">
                    <mxGeometry x="786" width="110" height="40" as="geometry">
                        <mxRectangle width="110" height="40" as="alternateBounds"/>
                    </mxGeometry>
                </mxCell>
                <mxCell id="5y4DoQftpul-xa9_T40p-158" style="shape=tableRow;horizontal=0;startSize=0;swimlaneHead=0;swimlaneBody=0;top=0;left=0;bottom=0;right=0;collapsible=0;dropTarget=0;fillColor=none;points=[[0,0.5],[1,0.5]];portConstraint=eastwest;" parent="5y4DoQftpul-xa9_T40p-66" vertex="1">
                    <mxGeometry y="470" width="896" height="40" as="geometry"/>
                </mxCell>
                <mxCell id="5y4DoQftpul-xa9_T40p-159" value="Koniec po rozpoczęciu następnego" style="shape=partialRectangle;html=1;whiteSpace=wrap;connectable=0;fillColor=none;top=0;left=0;bottom=0;right=0;overflow=hidden;fontStyle=0;align=left;spacingLeft=5;" parent="5y4DoQftpul-xa9_T40p-158" vertex="1">
                    <mxGeometry width="162" height="40" as="geometry">
                        <mxRectangle width="162" height="40" as="alternateBounds"/>
                    </mxGeometry>
                </mxCell>
                <mxCell id="5y4DoQftpul-xa9_T40p-160" style="shape=partialRectangle;html=1;whiteSpace=wrap;connectable=0;fillColor=none;top=0;left=0;bottom=0;right=0;overflow=hidden;" parent="5y4DoQftpul-xa9_T40p-158" vertex="1">
                    <mxGeometry x="162" width="294" height="40" as="geometry">
                        <mxRectangle width="294" height="40" as="alternateBounds"/>
                    </mxGeometry>
                </mxCell>
                <mxCell id="5y4DoQftpul-xa9_T40p-161" style="shape=partialRectangle;html=1;whiteSpace=wrap;connectable=0;fillColor=none;top=0;left=0;bottom=0;right=0;overflow=hidden;" parent="5y4DoQftpul-xa9_T40p-158" vertex="1">
                    <mxGeometry x="456" width="110" height="40" as="geometry">
                        <mxRectangle width="110" height="40" as="alternateBounds"/>
                    </mxGeometry>
                </mxCell>
                <mxCell id="5y4DoQftpul-xa9_T40p-162" style="shape=partialRectangle;html=1;whiteSpace=wrap;connectable=0;fillColor=none;top=0;left=0;bottom=0;right=0;overflow=hidden;" parent="5y4DoQftpul-xa9_T40p-158" vertex="1">
                    <mxGeometry x="566" width="110" height="40" as="geometry">
                        <mxRectangle width="110" height="40" as="alternateBounds"/>
                    </mxGeometry>
                </mxCell>
                <mxCell id="5y4DoQftpul-xa9_T40p-163" style="shape=partialRectangle;html=1;whiteSpace=wrap;connectable=0;fillColor=none;top=0;left=0;bottom=0;right=0;overflow=hidden;" parent="5y4DoQftpul-xa9_T40p-158" vertex="1">
                    <mxGeometry x="676" width="110" height="40" as="geometry">
                        <mxRectangle width="110" height="40" as="alternateBounds"/>
                    </mxGeometry>
                </mxCell>
                <mxCell id="5y4DoQftpul-xa9_T40p-164" style="shape=partialRectangle;html=1;whiteSpace=wrap;connectable=0;fillColor=none;top=0;left=0;bottom=0;right=0;overflow=hidden;" parent="5y4DoQftpul-xa9_T40p-158" vertex="1">
                    <mxGeometry x="786" width="110" height="40" as="geometry">
                        <mxRectangle width="110" height="40" as="alternateBounds"/>
                    </mxGeometry>
                </mxCell>
                <mxCell id="5y4DoQftpul-xa9_T40p-165" style="shape=tableRow;horizontal=0;startSize=0;swimlaneHead=0;swimlaneBody=0;top=0;left=0;bottom=0;right=0;collapsible=0;dropTarget=0;fillColor=none;points=[[0,0.5],[1,0.5]];portConstraint=eastwest;" parent="5y4DoQftpul-xa9_T40p-66" vertex="1">
                    <mxGeometry y="510" width="896" height="40" as="geometry"/>
                </mxCell>
                <mxCell id="5y4DoQftpul-xa9_T40p-166" value="Przed następnym" style="shape=partialRectangle;html=1;whiteSpace=wrap;connectable=0;fillColor=none;top=0;left=0;bottom=0;right=0;overflow=hidden;fontStyle=0;align=left;spacingLeft=5;" parent="5y4DoQftpul-xa9_T40p-165" vertex="1">
                    <mxGeometry width="162" height="40" as="geometry">
                        <mxRectangle width="162" height="40" as="alternateBounds"/>
                    </mxGeometry>
                </mxCell>
                <mxCell id="5y4DoQftpul-xa9_T40p-167" style="shape=partialRectangle;html=1;whiteSpace=wrap;connectable=0;fillColor=none;top=0;left=0;bottom=0;right=0;overflow=hidden;" parent="5y4DoQftpul-xa9_T40p-165" vertex="1">
                    <mxGeometry x="162" width="294" height="40" as="geometry">
                        <mxRectangle width="294" height="40" as="alternateBounds"/>
                    </mxGeometry>
                </mxCell>
                <mxCell id="5y4DoQftpul-xa9_T40p-168" style="shape=partialRectangle;html=1;whiteSpace=wrap;connectable=0;fillColor=none;top=0;left=0;bottom=0;right=0;overflow=hidden;" parent="5y4DoQftpul-xa9_T40p-165" vertex="1">
                    <mxGeometry x="456" width="110" height="40" as="geometry">
                        <mxRectangle width="110" height="40" as="alternateBounds"/>
                    </mxGeometry>
                </mxCell>
                <mxCell id="5y4DoQftpul-xa9_T40p-169" style="shape=partialRectangle;html=1;whiteSpace=wrap;connectable=0;fillColor=none;top=0;left=0;bottom=0;right=0;overflow=hidden;" parent="5y4DoQftpul-xa9_T40p-165" vertex="1">
                    <mxGeometry x="566" width="110" height="40" as="geometry">
                        <mxRectangle width="110" height="40" as="alternateBounds"/>
                    </mxGeometry>
                </mxCell>
                <mxCell id="5y4DoQftpul-xa9_T40p-170" style="shape=partialRectangle;html=1;whiteSpace=wrap;connectable=0;fillColor=none;top=0;left=0;bottom=0;right=0;overflow=hidden;" parent="5y4DoQftpul-xa9_T40p-165" vertex="1">
                    <mxGeometry x="676" width="110" height="40" as="geometry">
                        <mxRectangle width="110" height="40" as="alternateBounds"/>
                    </mxGeometry>
                </mxCell>
                <mxCell id="5y4DoQftpul-xa9_T40p-171" style="shape=partialRectangle;html=1;whiteSpace=wrap;connectable=0;fillColor=none;top=0;left=0;bottom=0;right=0;overflow=hidden;" parent="5y4DoQftpul-xa9_T40p-165" vertex="1">
                    <mxGeometry x="786" width="110" height="40" as="geometry">
                        <mxRectangle width="110" height="40" as="alternateBounds"/>
                    </mxGeometry>
                </mxCell>
                <mxCell id="5y4DoQftpul-xa9_T40p-172" style="shape=tableRow;horizontal=0;startSize=0;swimlaneHead=0;swimlaneBody=0;top=0;left=0;bottom=0;right=0;collapsible=0;dropTarget=0;fillColor=none;points=[[0,0.5],[1,0.5]];portConstraint=eastwest;" parent="5y4DoQftpul-xa9_T40p-66" vertex="1">
                    <mxGeometry y="550" width="896" height="40" as="geometry"/>
                </mxCell>
                <mxCell id="5y4DoQftpul-xa9_T40p-173" value="Przed przerwą" style="shape=partialRectangle;html=1;whiteSpace=wrap;connectable=0;fillColor=none;top=0;left=0;bottom=0;right=0;overflow=hidden;fontStyle=0;align=left;spacingLeft=5;" parent="5y4DoQftpul-xa9_T40p-172" vertex="1">
                    <mxGeometry width="162" height="40" as="geometry">
                        <mxRectangle width="162" height="40" as="alternateBounds"/>
                    </mxGeometry>
                </mxCell>
                <mxCell id="5y4DoQftpul-xa9_T40p-174" style="shape=partialRectangle;html=1;whiteSpace=wrap;connectable=0;fillColor=none;top=0;left=0;bottom=0;right=0;overflow=hidden;" parent="5y4DoQftpul-xa9_T40p-172" vertex="1">
                    <mxGeometry x="162" width="294" height="40" as="geometry">
                        <mxRectangle width="294" height="40" as="alternateBounds"/>
                    </mxGeometry>
                </mxCell>
                <mxCell id="5y4DoQftpul-xa9_T40p-175" style="shape=partialRectangle;html=1;whiteSpace=wrap;connectable=0;fillColor=none;top=0;left=0;bottom=0;right=0;overflow=hidden;" parent="5y4DoQftpul-xa9_T40p-172" vertex="1">
                    <mxGeometry x="456" width="110" height="40" as="geometry">
                        <mxRectangle width="110" height="40" as="alternateBounds"/>
                    </mxGeometry>
                </mxCell>
                <mxCell id="5y4DoQftpul-xa9_T40p-176" style="shape=partialRectangle;html=1;whiteSpace=wrap;connectable=0;fillColor=none;top=0;left=0;bottom=0;right=0;overflow=hidden;" parent="5y4DoQftpul-xa9_T40p-172" vertex="1">
                    <mxGeometry x="566" width="110" height="40" as="geometry">
                        <mxRectangle width="110" height="40" as="alternateBounds"/>
                    </mxGeometry>
                </mxCell>
                <mxCell id="5y4DoQftpul-xa9_T40p-177" style="shape=partialRectangle;html=1;whiteSpace=wrap;connectable=0;fillColor=none;top=0;left=0;bottom=0;right=0;overflow=hidden;" parent="5y4DoQftpul-xa9_T40p-172" vertex="1">
                    <mxGeometry x="676" width="110" height="40" as="geometry">
                        <mxRectangle width="110" height="40" as="alternateBounds"/>
                    </mxGeometry>
                </mxCell>
                <mxCell id="5y4DoQftpul-xa9_T40p-178" value="" style="shape=partialRectangle;html=1;whiteSpace=wrap;connectable=0;fillColor=none;top=0;left=0;bottom=0;right=0;overflow=hidden;" parent="5y4DoQftpul-xa9_T40p-172" vertex="1">
                    <mxGeometry x="786" width="110" height="40" as="geometry">
                        <mxRectangle width="110" height="40" as="alternateBounds"/>
                    </mxGeometry>
                </mxCell>
                <mxCell id="5y4DoQftpul-xa9_T40p-201" value="" style="sketch=0;html=1;aspect=fixed;strokeColor=none;shadow=0;align=center;verticalAlign=top;fillColor=#2D9C5E;shape=mxgraph.gcp2.check;labelBackgroundColor=none;" parent="107" vertex="1">
                    <mxGeometry x="846" y="479" width="25" height="20" as="geometry"/>
                </mxCell>
                <mxCell id="5y4DoQftpul-xa9_T40p-200" value="" style="sketch=0;html=1;aspect=fixed;strokeColor=none;shadow=0;align=center;verticalAlign=top;fillColor=#2D9C5E;shape=mxgraph.gcp2.check;labelBackgroundColor=none;" parent="107" vertex="1">
                    <mxGeometry x="846" y="439" width="25" height="20" as="geometry"/>
                </mxCell>
                <mxCell id="5y4DoQftpul-xa9_T40p-202" value="" style="sketch=0;html=1;aspect=fixed;strokeColor=none;shadow=0;align=center;verticalAlign=top;fillColor=#2D9C5E;shape=mxgraph.gcp2.check;labelBackgroundColor=none;" parent="107" vertex="1">
                    <mxGeometry x="846" y="519" width="25" height="20" as="geometry"/>
                </mxCell>
                <mxCell id="5y4DoQftpul-xa9_T40p-203" value="" style="sketch=0;html=1;aspect=fixed;strokeColor=none;shadow=0;align=center;verticalAlign=top;fillColor=#2D9C5E;shape=mxgraph.gcp2.check;labelBackgroundColor=none;" parent="107" vertex="1">
                    <mxGeometry x="846" y="559" width="25" height="20" as="geometry"/>
                </mxCell>
                <mxCell id="5y4DoQftpul-xa9_T40p-204" value="" style="sketch=0;html=1;aspect=fixed;strokeColor=none;shadow=0;align=center;verticalAlign=top;fillColor=#2D9C5E;shape=mxgraph.gcp2.check;labelBackgroundColor=none;" parent="107" vertex="1">
                    <mxGeometry x="846" y="599" width="25" height="20" as="geometry"/>
                </mxCell>
                <mxCell id="5y4DoQftpul-xa9_T40p-194" value="" style="sketch=0;html=1;aspect=fixed;strokeColor=none;shadow=0;align=center;verticalAlign=top;fillColor=#2D9C5E;shape=mxgraph.gcp2.check;labelBackgroundColor=none;" parent="107" vertex="1">
                    <mxGeometry x="960" y="639" width="25" height="20" as="geometry"/>
                </mxCell>
                <mxCell id="5y4DoQftpul-xa9_T40p-193" value="" style="sketch=0;html=1;aspect=fixed;strokeColor=none;shadow=0;align=center;verticalAlign=top;fillColor=#2D9C5E;shape=mxgraph.gcp2.check;labelBackgroundColor=none;" parent="107" vertex="1">
                    <mxGeometry x="960" y="599" width="25" height="20" as="geometry"/>
                </mxCell>
                <mxCell id="5y4DoQftpul-xa9_T40p-192" value="" style="sketch=0;html=1;aspect=fixed;strokeColor=none;shadow=0;align=center;verticalAlign=top;fillColor=#2D9C5E;shape=mxgraph.gcp2.check;labelBackgroundColor=none;" parent="107" vertex="1">
                    <mxGeometry x="960" y="559" width="25" height="20" as="geometry"/>
                </mxCell>
                <mxCell id="5y4DoQftpul-xa9_T40p-187" value="" style="sketch=0;html=1;aspect=fixed;strokeColor=none;shadow=0;align=center;verticalAlign=top;fillColor=#2D9C5E;shape=mxgraph.gcp2.check;labelBackgroundColor=none;" parent="107" vertex="1">
                    <mxGeometry x="960" y="519" width="25" height="20" as="geometry"/>
                </mxCell>
                <mxCell id="5y4DoQftpul-xa9_T40p-186" value="" style="sketch=0;html=1;aspect=fixed;strokeColor=none;shadow=0;align=center;verticalAlign=top;fillColor=#2D9C5E;shape=mxgraph.gcp2.check;labelBackgroundColor=none;" parent="107" vertex="1">
                    <mxGeometry x="960" y="479" width="25" height="20" as="geometry"/>
                </mxCell>
                <mxCell id="5y4DoQftpul-xa9_T40p-185" value="" style="sketch=0;html=1;aspect=fixed;strokeColor=none;shadow=0;align=center;verticalAlign=top;fillColor=#2D9C5E;shape=mxgraph.gcp2.check;labelBackgroundColor=none;" parent="107" vertex="1">
                    <mxGeometry x="960" y="439" width="25" height="20" as="geometry"/>
                </mxCell>
                <mxCell id="5y4DoQftpul-xa9_T40p-184" value="" style="sketch=0;html=1;aspect=fixed;strokeColor=none;shadow=0;align=center;verticalAlign=top;fillColor=#2D9C5E;shape=mxgraph.gcp2.check;labelBackgroundColor=none;" parent="107" vertex="1">
                    <mxGeometry x="960" y="399" width="25" height="20" as="geometry"/>
                </mxCell>
                <mxCell id="5y4DoQftpul-xa9_T40p-183" value="" style="sketch=0;html=1;aspect=fixed;strokeColor=none;shadow=0;align=center;verticalAlign=top;fillColor=#2D9C5E;shape=mxgraph.gcp2.check;labelBackgroundColor=none;" parent="107" vertex="1">
                    <mxGeometry x="960" y="359" width="25" height="20" as="geometry"/>
                </mxCell>
                <mxCell id="5y4DoQftpul-xa9_T40p-182" value="" style="sketch=0;html=1;aspect=fixed;strokeColor=none;shadow=0;align=center;verticalAlign=top;fillColor=#2D9C5E;shape=mxgraph.gcp2.check;labelBackgroundColor=none;" parent="107" vertex="1">
                    <mxGeometry x="960" y="319" width="25" height="20" as="geometry"/>
                </mxCell>
                <mxCell id="5y4DoQftpul-xa9_T40p-181" value="" style="sketch=0;html=1;aspect=fixed;strokeColor=none;shadow=0;align=center;verticalAlign=top;fillColor=#2D9C5E;shape=mxgraph.gcp2.check;labelBackgroundColor=none;" parent="107" vertex="1">
                    <mxGeometry x="960" y="279" width="25" height="20" as="geometry"/>
                </mxCell>
                <mxCell id="5y4DoQftpul-xa9_T40p-179" value="" style="sketch=0;html=1;aspect=fixed;strokeColor=none;shadow=0;align=center;verticalAlign=top;fillColor=#2D9C5E;shape=mxgraph.gcp2.check;labelBackgroundColor=none;" parent="107" vertex="1">
                    <mxGeometry x="960" y="239" width="25" height="20" as="geometry"/>
                </mxCell>
            </root>
        </mxGraphModel>
    </diagram>
</mxfile>